<?xml version="1.0" ?><!-- Uploaded to: SVG Repo, www.svgrepo.com, Generator: SVG Repo Mixer Tools -->
<svg fill="#000000" width="20px" height="20px" viewBox="0 -0.08 20 20" data-name="Capa 1" id="Capa_1" xmlns="http://www.w3.org/2000/svg"><path d="M16.83,10.57h-.47v-.5A3.35,3.35,0,0,0,13,6.72h-.85V6.5a1.59,1.59,0,0,0-1.59-1.59H9.52a.31.31,0,0,0,0,.61h1.05a1,1,0,0,1,1,1v7.15a1,1,0,0,1-1,1h-3a1.72,1.72,0,0,0-3.43,0H3.8a1,1,0,0,1-1-1V6.5a1,1,0,0,1,1-1h.74a.31.31,0,0,0,0-.61H3.8A1.59,1.59,0,0,0,2.21,6.5v7.15A1.59,1.59,0,0,0,3.8,15.24h.38a1.73,1.73,0,0,0,3.35,0h5a1.72,1.72,0,0,0,3.34,0h1a1,1,0,0,0,1-1V11.53A1,1,0,0,0,16.83,10.57Zm-11,5.37A1.13,1.13,0,1,1,7,14.81,1.13,1.13,0,0,1,5.85,15.94Zm8.32,0a1.13,1.13,0,1,1,1.13-1.13A1.14,1.14,0,0,1,14.17,15.94Zm3-1.66a.35.35,0,0,1-.35.35h-.94a1.72,1.72,0,0,0-3.43,0h-.65a1.6,1.6,0,0,0,.35-1V7.32H13a2.76,2.76,0,0,1,2.75,2.75v1.82a.3.3,0,0,0,.6,0v-.72h.47a.36.36,0,0,1,.35.36Z"/><path d="M5.56,5.48h.13a1.4,1.4,0,0,0,1,1v.17a.3.3,0,1,0,.6,0V6.49a1.39,1.39,0,0,0,1-1h.16a.31.31,0,0,0,0-.61H8.4A1.38,1.38,0,0,0,7.34,3.78V3.6a.3.3,0,0,0-.6,0v.18A1.38,1.38,0,0,0,5.67,4.87H5.56a.31.31,0,0,0,0,.61ZM6.79,4.4a.26.26,0,0,0,.5,0,.76.76,0,0,1,.49.51.29.29,0,0,0-.22.27.3.3,0,0,0,.2.26.75.75,0,0,1-.47.43A.28.28,0,0,0,7,5.69a.28.28,0,0,0-.25.19.82.82,0,0,1-.48-.43.3.3,0,0,0,.23-.27.29.29,0,0,0-.25-.28A.78.78,0,0,1,6.79,4.4Z"/></svg>